<?xml version="1.0" standalone="no"?><svg xmlns="http://www.w3.org/2000/svg" viewBox="0 0 1440 320"><path fill="#d3d3d3" fill-opacity="1" d="M0,224L6.2,186.7C12.3,149,25,75,37,42.7C49.2,11,62,21,74,42.7C86.2,64,98,96,111,112C123.1,128,135,128,148,144C160,160,172,192,185,202.7C196.9,213,209,203,222,181.3C233.8,160,246,128,258,96C270.8,64,283,32,295,32C307.7,32,320,64,332,90.7C344.6,117,357,139,369,149.3C381.5,160,394,160,406,181.3C418.5,203,431,245,443,229.3C455.4,213,468,139,480,138.7C492.3,139,505,213,517,213.3C529.2,213,542,139,554,112C566.2,85,578,107,591,106.7C603.1,107,615,85,628,101.3C640,117,652,171,665,197.3C676.9,224,689,224,702,202.7C713.8,181,726,139,738,144C750.8,149,763,203,775,197.3C787.7,192,800,128,812,117.3C824.6,107,837,149,849,154.7C861.5,160,874,128,886,138.7C898.5,149,911,203,923,213.3C935.4,224,948,192,960,154.7C972.3,117,985,75,997,74.7C1009.2,75,1022,117,1034,149.3C1046.2,181,1058,203,1071,224C1083.1,245,1095,267,1108,272C1120,277,1132,267,1145,224C1156.9,181,1169,107,1182,90.7C1193.8,75,1206,117,1218,149.3C1230.8,181,1243,203,1255,197.3C1267.7,192,1280,160,1292,165.3C1304.6,171,1317,213,1329,202.7C1341.5,192,1354,128,1366,85.3C1378.5,43,1391,21,1403,32C1415.4,43,1428,85,1434,106.7L1440,128L1440,0L1433.8,0C1427.7,0,1415,0,1403,0C1390.8,0,1378,0,1366,0C1353.8,0,1342,0,1329,0C1316.9,0,1305,0,1292,0C1280,0,1268,0,1255,0C1243.1,0,1231,0,1218,0C1206.2,0,1194,0,1182,0C1169.2,0,1157,0,1145,0C1132.3,0,1120,0,1108,0C1095.4,0,1083,0,1071,0C1058.5,0,1046,0,1034,0C1021.5,0,1009,0,997,0C984.6,0,972,0,960,0C947.7,0,935,0,923,0C910.8,0,898,0,886,0C873.8,0,862,0,849,0C836.9,0,825,0,812,0C800,0,788,0,775,0C763.1,0,751,0,738,0C726.2,0,714,0,702,0C689.2,0,677,0,665,0C652.3,0,640,0,628,0C615.4,0,603,0,591,0C578.5,0,566,0,554,0C541.5,0,529,0,517,0C504.6,0,492,0,480,0C467.7,0,455,0,443,0C430.8,0,418,0,406,0C393.8,0,382,0,369,0C356.9,0,345,0,332,0C320,0,308,0,295,0C283.1,0,271,0,258,0C246.2,0,234,0,222,0C209.2,0,197,0,185,0C172.3,0,160,0,148,0C135.4,0,123,0,111,0C98.5,0,86,0,74,0C61.5,0,49,0,37,0C24.6,0,12,0,6,0L0,0Z"></path></svg>